# xmcd CD database file
#
# Track frame offsets:
#	150
#	17276
#	34764
#	51524
#	67518
#	81495
#	94082
#	112124
#	129542
#	144863
#	159843
#	177230
#	192628
#	208305
#	223080
#	239756
#
# Disc length: 3515 seconds
#
# Revision: 0
# Processed by: cddbd v1.5.2PL0 Copyright (c) Steve Scherf et al.
# Submitted via: CDex 1.51
#
DISCID=e70db910
DTITLE=Bruno e Marrone - De Volta Aos Bares
DYEAR=2009
DGENRE=Sertanejo
TTITLE0=Não Tente Me Impedir
TTITLE1=Cavalgada
TTITLE2=Flashback de Nós Dois
TTITLE3=Pode ir Embora
TTITLE4=Sou Eu
TTITLE5=Onde Você Está
TTITLE6=Te Amo Tanto
TTITLE7=Duas Vezes Você
TTITLE8=Quem Tá Bêbo, Quem Tá Bão
TTITLE9=Amor Não Vai Faltar
TTITLE10=Quando Você Quiser
TTITLE11=Aline - Paredes Azuis
TTITLE12=Desliga
TTITLE13=Fiel Até Debaixo D'água
TTITLE14=Chamego Bom
TTITLE15=Favo de Mel
EXTD=YEAR: 2009
EXTT0=
EXTT1=
EXTT2=
EXTT3=
EXTT4=
EXTT5=
EXTT6=
EXTT7=
EXTT8=
EXTT9=
EXTT10=
EXTT11=
EXTT12=
EXTT13=
EXTT14=
EXTT15=
PLAYORDER=
